<mxfile host="app.diagrams.net" modified="2021-03-22T10:32:05.234Z" agent="5.0 (Windows NT 10.0; Win64; x64) AppleWebKit/537.36 (KHTML, like Gecko) Chrome/88.0.4324.146 Safari/537.36" etag="qGTtUHiNU8mDzVGnehfG" version="14.4.9" type="github">
  <diagram id="PbG4Fj4FKivZKdx_B7DZ" name="第 1 页">
    <mxGraphModel dx="865" dy="457" grid="1" gridSize="10" guides="1" tooltips="1" connect="1" arrows="1" fold="1" page="1" pageScale="1" pageWidth="850" pageHeight="1100" math="0" shadow="0">
      <root>
        <mxCell id="0" />
        <mxCell id="1" parent="0" />
        <mxCell id="pSTd1nk35drogaQdeWbf-8" value="" style="rounded=1;whiteSpace=wrap;html=1;" parent="1" vertex="1">
          <mxGeometry x="300" y="210" width="477.5" height="105" as="geometry" />
        </mxCell>
        <mxCell id="pSTd1nk35drogaQdeWbf-1" value="加载&lt;br&gt;&lt;br&gt;Loading" style="rounded=0;whiteSpace=wrap;html=1;" parent="1" vertex="1">
          <mxGeometry x="160" y="240" width="120" height="60" as="geometry" />
        </mxCell>
        <mxCell id="pSTd1nk35drogaQdeWbf-2" value="验证&lt;br&gt;&lt;br&gt;Verification" style="rounded=0;whiteSpace=wrap;html=1;" parent="1" vertex="1">
          <mxGeometry x="320" y="240" width="120" height="60" as="geometry" />
        </mxCell>
        <mxCell id="pSTd1nk35drogaQdeWbf-3" value="准备&lt;br&gt;&lt;br&gt;Preparation" style="rounded=0;whiteSpace=wrap;html=1;" parent="1" vertex="1">
          <mxGeometry x="480" y="240" width="120" height="60" as="geometry" />
        </mxCell>
        <mxCell id="pSTd1nk35drogaQdeWbf-4" value="解析&lt;br&gt;&lt;br&gt;Resolution" style="rounded=0;whiteSpace=wrap;html=1;" parent="1" vertex="1">
          <mxGeometry x="640" y="240" width="120" height="60" as="geometry" />
        </mxCell>
        <mxCell id="pSTd1nk35drogaQdeWbf-5" value="初始化&lt;br&gt;&lt;br&gt;Initialization" style="rounded=0;whiteSpace=wrap;html=1;" parent="1" vertex="1">
          <mxGeometry x="640" y="360" width="120" height="60" as="geometry" />
        </mxCell>
        <mxCell id="pSTd1nk35drogaQdeWbf-6" value="使用&lt;br&gt;&lt;br&gt;Using" style="rounded=0;whiteSpace=wrap;html=1;" parent="1" vertex="1">
          <mxGeometry x="480" y="360" width="120" height="60" as="geometry" />
        </mxCell>
        <mxCell id="pSTd1nk35drogaQdeWbf-7" value="卸载&lt;br&gt;&lt;br&gt;Unloading" style="rounded=0;whiteSpace=wrap;html=1;" parent="1" vertex="1">
          <mxGeometry x="320" y="360" width="120" height="60" as="geometry" />
        </mxCell>
        <mxCell id="pSTd1nk35drogaQdeWbf-9" value="" style="shape=flexArrow;endArrow=classic;html=1;exitX=1;exitY=0.5;exitDx=0;exitDy=0;entryX=0;entryY=0.5;entryDx=0;entryDy=0;" parent="1" source="pSTd1nk35drogaQdeWbf-1" target="pSTd1nk35drogaQdeWbf-2" edge="1">
          <mxGeometry width="50" height="50" relative="1" as="geometry">
            <mxPoint x="410" y="220" as="sourcePoint" />
            <mxPoint x="460" y="170" as="targetPoint" />
          </mxGeometry>
        </mxCell>
        <mxCell id="pSTd1nk35drogaQdeWbf-10" value="" style="shape=flexArrow;endArrow=classic;html=1;exitX=1;exitY=0.5;exitDx=0;exitDy=0;entryX=0;entryY=0.5;entryDx=0;entryDy=0;" parent="1" edge="1">
          <mxGeometry width="50" height="50" relative="1" as="geometry">
            <mxPoint x="440" y="269.58" as="sourcePoint" />
            <mxPoint x="480" y="269.58" as="targetPoint" />
          </mxGeometry>
        </mxCell>
        <mxCell id="pSTd1nk35drogaQdeWbf-12" value="" style="shape=flexArrow;endArrow=classic;html=1;exitX=1;exitY=0.5;exitDx=0;exitDy=0;entryX=0;entryY=0.5;entryDx=0;entryDy=0;" parent="1" edge="1">
          <mxGeometry width="50" height="50" relative="1" as="geometry">
            <mxPoint x="600" y="269.5799999999999" as="sourcePoint" />
            <mxPoint x="640" y="269.5799999999999" as="targetPoint" />
          </mxGeometry>
        </mxCell>
        <mxCell id="pSTd1nk35drogaQdeWbf-13" value="连接&lt;br&gt;&lt;br&gt;Linking" style="text;html=1;strokeColor=none;fillColor=none;align=center;verticalAlign=middle;whiteSpace=wrap;rounded=0;" parent="1" vertex="1">
          <mxGeometry x="493.75" y="180" width="90" height="60" as="geometry" />
        </mxCell>
        <mxCell id="pSTd1nk35drogaQdeWbf-14" value="" style="shape=flexArrow;endArrow=classic;html=1;entryX=0.5;entryY=0;entryDx=0;entryDy=0;exitX=0.5;exitY=1;exitDx=0;exitDy=0;" parent="1" source="pSTd1nk35drogaQdeWbf-4" target="pSTd1nk35drogaQdeWbf-5" edge="1">
          <mxGeometry width="50" height="50" relative="1" as="geometry">
            <mxPoint x="700" y="330" as="sourcePoint" />
            <mxPoint x="840" y="290" as="targetPoint" />
          </mxGeometry>
        </mxCell>
        <mxCell id="pSTd1nk35drogaQdeWbf-15" value="" style="shape=flexArrow;endArrow=classic;html=1;entryX=1;entryY=0.5;entryDx=0;entryDy=0;exitX=0;exitY=0.5;exitDx=0;exitDy=0;" parent="1" source="pSTd1nk35drogaQdeWbf-5" target="pSTd1nk35drogaQdeWbf-6" edge="1">
          <mxGeometry width="50" height="50" relative="1" as="geometry">
            <mxPoint x="570" y="480" as="sourcePoint" />
            <mxPoint x="620" y="430" as="targetPoint" />
          </mxGeometry>
        </mxCell>
        <mxCell id="pSTd1nk35drogaQdeWbf-16" value="" style="shape=flexArrow;endArrow=classic;html=1;entryX=1;entryY=0.5;entryDx=0;entryDy=0;exitX=0;exitY=0.5;exitDx=0;exitDy=0;" parent="1" edge="1">
          <mxGeometry width="50" height="50" relative="1" as="geometry">
            <mxPoint x="480" y="390" as="sourcePoint" />
            <mxPoint x="440" y="390" as="targetPoint" />
          </mxGeometry>
        </mxCell>
        <mxCell id="d6rJaHVzQBSoT8-gn7Gf-1" value="" style="rounded=0;whiteSpace=wrap;html=1;" vertex="1" parent="1">
          <mxGeometry x="120" y="520" width="410" height="380" as="geometry" />
        </mxCell>
        <mxCell id="d6rJaHVzQBSoT8-gn7Gf-2" value="Bootstrap&lt;br&gt;&lt;br&gt;&amp;nbsp;ClassLoader" style="rounded=0;whiteSpace=wrap;html=1;" vertex="1" parent="1">
          <mxGeometry x="270" y="540" width="120" height="60" as="geometry" />
        </mxCell>
        <mxCell id="d6rJaHVzQBSoT8-gn7Gf-3" value="Extension&lt;br&gt;&lt;br&gt;&amp;nbsp;ClassLoader" style="rounded=0;whiteSpace=wrap;html=1;" vertex="1" parent="1">
          <mxGeometry x="270" y="630" width="120" height="60" as="geometry" />
        </mxCell>
        <mxCell id="d6rJaHVzQBSoT8-gn7Gf-4" value="Application&lt;br&gt;&lt;br&gt;&amp;nbsp;ClassLoader" style="rounded=0;whiteSpace=wrap;html=1;" vertex="1" parent="1">
          <mxGeometry x="270" y="720" width="120" height="60" as="geometry" />
        </mxCell>
        <mxCell id="d6rJaHVzQBSoT8-gn7Gf-5" value="User&lt;br&gt;&lt;br&gt;&amp;nbsp;ClassLoader" style="rounded=0;whiteSpace=wrap;html=1;" vertex="1" parent="1">
          <mxGeometry x="160" y="820" width="120" height="60" as="geometry" />
        </mxCell>
        <mxCell id="d6rJaHVzQBSoT8-gn7Gf-6" value="User&lt;br&gt;&lt;br&gt;&amp;nbsp;ClassLoader" style="rounded=0;whiteSpace=wrap;html=1;" vertex="1" parent="1">
          <mxGeometry x="373.75" y="820" width="120" height="60" as="geometry" />
        </mxCell>
        <mxCell id="d6rJaHVzQBSoT8-gn7Gf-8" value="" style="endArrow=classic;html=1;entryX=0.5;entryY=1;entryDx=0;entryDy=0;exitX=0.5;exitY=0;exitDx=0;exitDy=0;" edge="1" parent="1" source="d6rJaHVzQBSoT8-gn7Gf-3" target="d6rJaHVzQBSoT8-gn7Gf-2">
          <mxGeometry width="50" height="50" relative="1" as="geometry">
            <mxPoint x="430" y="680" as="sourcePoint" />
            <mxPoint x="480" y="630" as="targetPoint" />
          </mxGeometry>
        </mxCell>
        <mxCell id="d6rJaHVzQBSoT8-gn7Gf-9" value="" style="endArrow=classic;html=1;entryX=0.5;entryY=1;entryDx=0;entryDy=0;exitX=0.5;exitY=0;exitDx=0;exitDy=0;" edge="1" parent="1">
          <mxGeometry width="50" height="50" relative="1" as="geometry">
            <mxPoint x="329.5" y="720" as="sourcePoint" />
            <mxPoint x="329.5" y="690" as="targetPoint" />
          </mxGeometry>
        </mxCell>
        <mxCell id="d6rJaHVzQBSoT8-gn7Gf-12" value="" style="edgeStyle=elbowEdgeStyle;elbow=vertical;endArrow=classic;html=1;exitX=0.5;exitY=0;exitDx=0;exitDy=0;" edge="1" parent="1" source="d6rJaHVzQBSoT8-gn7Gf-5">
          <mxGeometry width="50" height="50" relative="1" as="geometry">
            <mxPoint x="280" y="830" as="sourcePoint" />
            <mxPoint x="330" y="780" as="targetPoint" />
          </mxGeometry>
        </mxCell>
        <mxCell id="d6rJaHVzQBSoT8-gn7Gf-14" value="" style="edgeStyle=elbowEdgeStyle;elbow=vertical;endArrow=classic;html=1;exitX=0.5;exitY=0;exitDx=0;exitDy=0;" edge="1" parent="1" source="d6rJaHVzQBSoT8-gn7Gf-6">
          <mxGeometry width="50" height="50" relative="1" as="geometry">
            <mxPoint x="330" y="860" as="sourcePoint" />
            <mxPoint x="330" y="780" as="targetPoint" />
          </mxGeometry>
        </mxCell>
      </root>
    </mxGraphModel>
  </diagram>
</mxfile>
